[img]http://img37.imageshack.us/img37/4267/themanq.jpg[/img]
[code]
The Man on the Train 2011 DVDSCREENER XViD AC3 -26K

Imdb: 
http://www.imdb.com/title/tt1646922/

Plot:
A mysterious criminal rolls into a small town planning to knock off the local bank, assuming it will go 

off without a 

Sources:
SIC

Notes:
thnxs SIC encoded video and added few filters :) so enjoy take it or leave it i say :D

Greetz:
To all the people who have helped us :P you know who you are

Video
ID                                       : 0
Format                                   : MPEG-4 Visual
Format profile                           : Advanced Simple@L5
Format settings, BVOP                    : 2
Format settings, QPel                    : No
Format settings, GMC                     : No warppoints
Format settings, Matrix                  : Default (H.263)
Codec ID                                 : XVID
Codec ID/Hint                            : XviD
Duration                                 : 1h 40mn
Bit rate                                 : 1 505 Kbps
Width                                    : 640 pixels
Height                                   : 272 pixels
Display aspect ratio                     : 2.35:1
Frame rate                               : 23.976 fps
Color space                              : YUV
Chroma subsampling                       : 4:2:0
Bit depth                                : 8 bits
Scan type                                : Progressive
Compression mode                         : Lossy
Bits/(Pixel*Frame)                       : 0.361
Stream size                              : 1.05 GiB (87%)
Writing library                          : XviD 63

Audio
ID                                       : 1
Format                                   : AC-3
Format/Info                              : Audio Coding 3
Mode extension                           : CM (complete main)
Codec ID                                 : 2000
Duration                                 : 1h 40mn
Bit rate mode                            : Constant
Bit rate                                 : 224 Kbps
Channel(s)                               : 2 channels
Channel positions                        : Front: L R
Sampling rate                            : 48.0 KHz
Bit depth                                : 16 bits
Compression mode                         : Lossy
Stream size                              : 160 MiB (13%)
Alignment                                : Aligned on interleaves
Interleave, duration                     : 32 ms (0.77 video frame)

[/code]
Screens:
[img]http://img687.imageshack.us/img687/6940/vlcsnap2011120623h36m47.png[/img]
[img]http://img684.imageshack.us/img684/4506/vlcsnap2011120623h36m55.png[/img]
[img]http://img6.imageshack.us/img6/7410/vlcsnap2011120623h37m08.png[/img]